<svg width="134" height="134" viewBox="0 0 134 134" fill="none" xmlns="http://www.w3.org/2000/svg">
  <path d="M75 8C75 12.4183 71.4183 16 67 16C62.5817 16 59 12.4183 59 8C59 3.58173 62.5817 0 67 0C71.4183 0 75 3.58173 75 8Z" fill="#F8B22C"/>
  <path d="M105 67C105 87.9868 87.9868 105 67 105C46.0132 105 29 87.9868 29 67C29 46.0132 46.0132 29 67 29C87.9868 29 105 46.0132 105 67Z" fill="#F8B22C"/>
  <path d="M67 134C71.4183 134 75 130.418 75 126C75 121.582 71.4183 118 67 118C62.5817 118 59 121.582 59 126C59 130.418 62.5817 134 67 134Z" fill="#F8B22C"/>
  <path d="M114.376 30.9376C111.252 34.0618 106.187 34.0618 103.062 30.9376C99.9382 27.8134 99.9382 22.748 103.062 19.6239C106.187 16.4996 111.252 16.4996 114.376 19.6239C117.5 22.748 117.5 27.8134 114.376 30.9376Z" fill="#F8B22C"/>
  <path d="M19.6238 114.376C22.748 117.5 27.8134 117.5 30.9376 114.376C34.0618 111.252 34.0618 106.187 30.9376 103.062C27.8134 99.9382 22.748 99.9382 19.6238 103.062C16.4996 106.187 16.4996 111.252 19.6238 114.376Z" fill="#F8B22C"/>
  <path d="M126 75C121.582 75 118 71.4183 118 67C118 62.5817 121.582 59 126 59C130.418 59 134 62.5817 134 67C134 71.4183 130.418 75 126 75Z" fill="#F8B22C"/>
  <path d="M0 67C0 71.4183 3.58173 75 8 75C12.4183 75 16 71.4183 16 67C16 62.5817 12.4183 59 8 59C3.58173 59 0 62.5817 0 67Z" fill="#F8B22C"/>
  <path d="M103.062 114.376C99.9383 111.252 99.9383 106.187 103.062 103.062C106.187 99.9382 111.252 99.9382 114.376 103.062C117.5 106.187 117.5 111.252 114.376 114.376C111.252 117.5 106.187 117.5 103.062 114.376Z" fill="#F8B22C"/>
  <path d="M19.6238 19.6238C16.4996 22.748 16.4996 27.8134 19.6238 30.9376C22.748 34.0618 27.8134 34.0618 30.9376 30.9376C34.0618 27.8134 34.0618 22.748 30.9376 19.6238C27.8134 16.4996 22.748 16.4996 19.6238 19.6238Z" fill="#F8B22C"/>
</svg>